PathFileType	4	(X/Y/Z)	c:/Users/goper/Files/vsCode/490R/osim_files/C11/C11_Static02.trc
DataRate	CameraRate	NumFrames	NumMarkers	Units                	OrigDataRate	OrigDataStartFrame	OrigNumFrames
120.00	120.00	9	36	mm	120.0	734	978
                Frame#	Time	LPSI			LASI			LTH1			LTH2			LTH3			LTH4			LLFE			LMFE			LSH1			LSH2			LSH3			LSH4			LLMA			LMMA			LCAL			LMTP			LTOE			LMTP			RPSI			RASI			RTH1			RTH2			RTH3			RTH4			RLFE			RMFE			RSH1			RSH2			RSH3			RSH4			RLMA			RMMA			RCAL			RMTP			RTOE			RMTP		
		X1	Y1	Z1	X2	Y2	Z2	X3	Y3	Z3	X4	Y4	Z4	X5	Y5	Z5	X6	Y6	Z6	X7	Y7	Z7	X8	Y8	Z8	X9	Y9	Z9	X10	Y10	Z10	X11	Y11	Z11	X12	Y12	Z12	X13	Y13	Z13	X14	Y14	Z14	X15	Y15	Z15	X16	Y16	Z16	X17	Y17	Z17	X18	Y18	Z18	X19	Y19	Z19	X20	Y20	Z20	X21	Y21	Z21	X22	Y22	Z22	X23	Y23	Z23	X24	Y24	Z24	X25	Y25	Z25	X26	Y26	Z26	X27	Y27	Z27	X28	Y28	Z28	X29	Y29	Z29	X30	Y30	Z30	X31	Y31	Z31	X32	Y32	Z32	X33	Y33	Z33	X34	Y34	Z34	X35	Y35	Z35	X36	Y36	Z36

734	6.10833	-354.18594	1019.15942	489.17294	-168.67223	1004.95825	453.71405	-286.75537	600.92596	353.37247	-278.55817	554.04297	357.17325	-227.21005	607.10516	363.04514	-228.91498	560.43903	368.37360	-286.83310	514.89642	356.11609	-278.90695	502.97180	467.59750	-348.89673	412.15170	341.83386	-349.72388	367.64523	338.92764	-286.70718	406.32785	335.64618	-296.36023	362.38605	333.91724	-336.02063	95.21913	378.77527	-301.64874	110.64596	469.97174	-391.75064	59.27744	435.39511	-225.39484	39.90232	340.68152	-149.85320	56.51972	405.87836	-187.07999	44.70645	454.32236	-367.29364	1030.22949	573.21259	-225.69753	1001.03851	683.96271	-333.38400	603.93567	724.98077	-325.74710	560.85028	722.55530	-270.53510	607.74066	722.96558	-273.17303	564.70465	722.04144	-309.57233	519.95013	714.93982	-320.09546	492.69403	600.81274	-380.64337	413.06540	729.77710	-376.97678	367.26456	731.40979	-320.68289	409.99307	731.32446	-323.91846	364.05652	735.43353	-357.45642	97.80408	703.51904	-317.92209	106.06284	613.15607	-413.13275	60.06908	643.08350	-194.91064	49.09886	652.55511	-198.08679	61.64022	702.88745	-246.78935	39.43664	757.61578
735	6.11667	-354.24219	1019.09247	489.16806	-168.79088	1004.99091	453.54800	-286.79712	600.94568	353.33838	-278.62640	554.06927	357.11792	-227.23802	607.11542	362.98990	-228.94525	560.45331	368.33386	-286.85114	514.88837	356.08972	-278.85101	502.94424	467.57401	-348.88657	412.14703	341.80829	-349.73251	367.64722	338.93707	-286.69388	406.31088	335.65128	-296.36313	362.38354	333.90561	-336.02661	95.24910	378.76776	-301.63986	110.61811	469.95990	-391.75330	59.28176	435.37732	-225.39807	39.88988	340.68686	-149.81279	56.53776	405.89151	-187.04404	44.71474	454.32526	-367.29367	1030.18665	573.23029	-225.53552	1001.05048	683.84814	-333.19693	603.90863	724.94745	-325.56952	560.81964	722.50421	-270.41162	607.71661	722.90576	-273.01587	564.68475	721.97607	-309.41776	519.91388	714.91309	-320.02844	492.68118	600.78558	-380.49649	413.02957	729.77795	-376.84280	367.20966	731.40735	-320.42422	410.01611	731.32855	-323.76566	364.03601	735.41864	-357.35416	97.78185	703.48541	-317.92126	106.05621	613.14331	-413.09705	60.04317	643.05524	-194.89375	49.10077	652.57251	-198.07777	61.64288	702.89691	-246.76273	39.43925	757.60339
736	6.12500	-354.28500	1019.04242	489.22723	-168.93945	1005.02771	453.37521	-286.82877	600.93213	353.30951	-278.66403	554.05194	357.08179	-227.26001	607.12292	362.93845	-228.97185	560.45349	368.27478	-286.86166	514.87616	356.06915	-278.82935	502.96298	467.57217	-348.93915	412.11154	341.81534	-349.75787	367.63559	338.94467	-286.73529	406.29529	335.61603	-296.39087	362.36749	333.88983	-336.04306	95.24223	378.76373	-301.64386	110.58935	469.97620	-391.75174	59.24773	435.40582	-225.39745	39.86561	340.67935	-149.84450	56.50798	405.88196	-187.08136	44.70076	454.31161	-367.26254	1030.14026	573.29358	-225.43399	1001.05853	683.76196	-333.05530	603.94348	724.94452	-325.44962	560.84277	722.48633	-270.30801	607.70093	722.83868	-272.90704	564.65808	721.92865	-309.28635	519.90735	714.90472	-319.96945	492.64783	600.78406	-380.44464	413.05585	729.79126	-376.76910	367.22644	731.42126	-320.42828	409.92746	731.32135	-323.69043	364.01266	735.42175	-357.43372	97.80369	703.48511	-317.94019	106.03864	613.12299	-413.13837	60.06050	643.06183	-194.91048	49.08391	652.56842	-198.10100	61.61453	702.89447	-246.79721	39.41802	757.59711
737	6.13333	-354.33270	1018.98755	489.26947	-169.03963	1005.00983	453.23807	-286.87180	600.87933	353.28586	-278.70236	554.02710	357.05798	-227.29205	607.13043	362.88870	-229.00081	560.44556	368.21906	-286.92590	514.84387	356.04449	-278.86740	502.92398	467.51266	-348.93826	412.06262	341.82465	-349.76450	367.60394	338.91476	-286.71997	406.26672	335.59531	-296.40402	362.33856	333.86966	-336.03235	95.19550	378.76550	-301.70975	110.53008	469.99365	-391.75385	59.20295	435.42148	-225.43132	39.93045	340.62955	-149.85748	56.46591	405.88223	-187.07207	44.65599	454.31555	-367.30414	1030.10181	573.36511	-225.31851	1001.03143	683.68817	-332.93552	603.93640	724.95923	-325.30548	560.82904	722.50159	-270.19827	607.67303	722.79681	-272.74991	564.62848	721.87067	-309.19080	519.85675	714.91302	-319.89941	492.60895	600.80603	-380.35852	413.03384	729.82825	-376.69559	367.22055	731.46802	-320.36273	409.87436	731.32166	-323.58817	363.98935	735.42096	-357.50894	97.77565	703.51282	-317.95364	106.00748	613.12463	-413.14102	60.02855	643.10052	-194.90898	49.02663	652.55237	-198.10245	61.57751	702.88629	-246.81873	39.37150	757.59479
738	6.14167	-354.36163	1018.95416	489.35956	-169.12810	1004.98260	453.09869	-286.91473	600.82880	353.27704	-278.71964	553.97406	357.06052	-227.30127	607.11951	362.85352	-229.02287	560.42572	368.18436	-286.94702	514.77985	356.01474	-278.13754	503.24869	467.42587	-348.99802	412.02356	341.83212	-349.75281	367.57581	338.88739	-286.72153	406.24475	335.57474	-296.39734	362.30811	333.85696	-336.03931	95.15643	378.77884	-301.66785	110.52355	470.02512	-391.72665	59.14042	435.43396	-225.42230	39.89046	340.65076	-149.85016	56.41512	405.88190	-187.06927	44.62293	454.31567	-367.26813	1030.06458	573.46179	-225.12643	1001.04413	683.60272	-332.71271	603.91846	724.97986	-325.07745	560.79236	722.52960	-270.02368	607.66144	722.75049	-272.56937	564.60657	721.80658	-309.02411	519.83771	714.91534	-319.85849	492.59094	600.84369	-380.24289	413.01471	729.88928	-376.56711	367.19534	731.50391	-319.04636	410.37625	731.81281	-323.43317	363.97501	735.42401	-357.48001	97.72145	703.52472	-317.94696	105.96621	613.12476	-413.11481	59.98236	643.13489	-194.91504	48.98919	652.55255	-198.08055	61.53292	702.87811	-246.78656	39.32106	757.59821
739	6.15000	-354.39706	1018.88983	489.39426	-169.19005	1004.99701	452.95493	-286.95233	600.80225	353.25836	-278.76096	553.93378	357.04568	-227.35277	607.10651	362.82538	-229.06010	560.40063	368.14816	-286.97363	514.73328	356.00397	-278.87122	502.91858	467.43527	-349.04016	411.97098	341.84357	-349.73596	367.56662	338.82773	-286.73456	406.20825	335.54431	-296.40750	362.26587	333.83578	-336.05585	95.10416	378.79739	-301.68390	110.49312	470.03098	-391.73447	59.13438	435.41779	-225.43143	39.87258	340.64948	-149.86031	56.40128	405.87521	-187.08051	44.60178	454.31421	-367.22369	1030.02075	573.53381	-224.93491	1001.05127	683.52051	-332.52567	603.89520	724.99603	-324.88278	560.77039	722.54407	-269.82428	607.66278	722.68744	-272.35477	564.62885	721.75580	-308.88055	519.80121	714.91675	-319.80682	492.55658	600.85773	-380.11536	412.96365	729.91101	-376.49448	367.16833	731.52191	-320.02731	409.82120	731.31281	-323.31821	363.95404	735.41931	-357.49939	97.68903	703.49805	-317.93549	105.91168	613.13629	-413.14230	59.97383	643.14160	-194.90784	48.97350	652.53302	-198.06178	61.52570	702.86145	-246.80112	39.28468	757.59875
740	6.15833	-354.44522	1018.83521	489.41968	-169.24255	1005.07428	452.81091	-286.99738	600.79578	353.24371	-278.80032	553.92523	357.00836	-227.40448	607.12854	362.76944	-229.08771	560.41864	368.11349	-287.02380	514.74469	355.96207	-278.88235	502.94760	467.38159	-349.06946	411.95184	341.82883	-349.76855	367.55994	338.82675	-286.76056	406.21661	335.52573	-296.41849	362.26959	333.80139	-336.06311	95.10458	378.81216	-301.69559	110.50708	469.99805	-391.75119	59.14949	435.40768	-225.42574	39.86285	340.63745	-149.81932	56.44070	405.86969	-187.06419	44.63472	454.31625	-367.21027	1029.94763	573.56519	-224.78497	1001.09204	683.43402	-332.35870	603.91309	725.00159	-324.74658	560.76385	722.53418	-269.64282	607.68085	722.62256	-272.18030	564.63550	721.68433	-308.75220	519.80084	714.89056	-319.78149	492.54285	600.85242	-380.04126	412.97577	729.90833	-376.39795	367.16904	731.53680	-318.78366	410.40948	731.78394	-323.21643	363.96552	735.41895	-357.53479	97.69246	703.49213	-317.94568	105.92367	613.13922	-413.15176	59.99862	643.11908	-194.87009	49.01582	652.54218	-198.06303	61.55331	702.83875	-246.81265	39.29916	757.60266
741	6.16667	-354.42999	1018.73999	489.45612	-169.29939	1005.17798	452.65717	-287.06668	600.81708	353.19385	-278.85782	553.94830	356.95074	-227.46541	607.17548	362.68967	-229.11305	560.50165	368.05484	-287.11255	514.77911	355.90613	-278.85144	503.03360	467.34171	-349.09338	411.96204	341.79684	-349.77396	367.56061	338.80777	-286.78369	406.27289	335.48560	-296.44525	362.32114	333.77771	-336.07507	95.11084	378.81189	-301.73578	110.52219	469.97086	-391.74564	59.16619	435.38983	-225.45251	39.77849	340.68839	-149.81464	56.51784	405.86124	-187.02725	44.71854	454.30722	-367.14673	1029.89917	573.60956	-224.62773	1001.14764	683.33252	-332.22064	603.91840	725.00519	-324.59705	560.79651	722.51019	-269.45657	607.72101	722.56702	-272.01566	564.67590	721.62634	-308.64355	519.81323	714.85028	-319.74658	492.54822	600.83002	-379.96570	412.97897	729.88892	-376.37836	367.22610	731.60193	-319.71152	409.98953	731.32568	-323.12323	364.01553	735.41241	-357.52911	97.71823	703.45953	-317.98544	105.93890	613.12305	-413.12149	59.98984	643.08246	-194.87151	49.06112	652.52509	-198.05891	61.61826	702.84735	-246.81664	39.35390	757.59113
742	6.17500	-354.46606	1018.66223	489.47073	-169.39439	1005.19946	452.54068	-287.14426	600.84143	353.14911	-278.92255	553.96832	356.87741	-227.52829	607.20551	362.63641	-229.16611	560.52399	368.00970	-287.13434	514.80127	355.87650	-278.89124	502.99323	467.31503	-349.11859	411.94666	341.75156	-349.82202	367.57532	338.78854	-286.79477	406.30029	335.47150	-296.46494	362.34167	333.73813	-336.09073	95.13091	378.81323	-301.76035	110.50420	469.96002	-391.78665	59.17033	435.40952	-225.47151	39.88779	340.61069	-149.83595	56.52017	405.87994	-187.09512	44.68866	454.32663	-367.15302	1029.86646	573.64368	-224.51530	1001.12891	683.27374	-332.05457	603.91077	725.02710	-324.44315	560.76318	722.51019	-269.32227	607.69574	722.53693	-271.89758	564.64862	721.59320	-308.52701	519.79865	714.85272	-319.73264	492.56409	600.82452	-379.86627	412.95862	729.91956	-376.27859	367.19510	731.64319	-318.58926	410.41534	731.80890	-323.04648	363.96295	735.41766	-357.52863	97.68134	703.45618	-317.98904	105.98207	613.12054	-413.14017	59.99143	643.07709	-194.87268	49.07935	652.54602	-198.08832	61.60931	702.86853	-246.84381	39.36043	757.59998
